<?xml version="1.0" standalone="no"?>
<!DOCTYPE svg PUBLIC "-//W3C//DTD SVG 20010904//EN"
 "http://www.w3.org/TR/2001/REC-SVG-20010904/DTD/svg10.dtd">
<svg version="1.0" xmlns="http://www.w3.org/2000/svg"
 width="512.000000pt" height="512.000000pt" viewBox="0 0 512.000000 512.000000"
 preserveAspectRatio="xMidYMid meet">
<metadata>
Created by potrace 1.11, written by Peter Selinger 2001-2013
</metadata>
<g transform="translate(0.000000,512.000000) scale(0.100000,-0.100000)"
fill="#000000" stroke="none">
<path d="M1823 4941 c-108 -37 -178 -110 -210 -220 -28 -99 3 -223 76 -300
l32 -35 -32 -69 c-18 -39 -37 -89 -44 -111 -12 -40 -13 -41 -68 -48 -30 -4
-71 -14 -90 -22 l-35 -14 -126 115 -126 116 0 182 c0 180 0 183 -28 236 -22
43 -38 59 -81 81 -30 16 -69 28 -90 28 -48 -1 -115 -32 -150 -71 l-29 -31 -66
40 c-116 70 -208 78 -313 26 -46 -22 -103 -74 -103 -92 0 -4 29 -26 64 -49
l63 -41 27 26 c22 22 35 27 79 27 48 0 61 -6 159 -72 125 -83 139 -89 178 -73
31 13 48 45 52 99 4 41 29 61 56 45 15 -10 17 -32 20 -185 l2 -174 -280 -280
-281 -280 -69 71 c-67 68 -70 74 -70 119 0 25 20 157 45 293 25 135 45 251 45
258 0 11 -138 39 -148 29 -3 -3 -27 -123 -54 -268 -55 -293 -57 -359 -19 -437
16 -32 226 -248 739 -760 750 -749 763 -761 895 -808 34 -12 47 -21 43 -32 -3
-8 -40 -138 -83 -288 l-78 -274 -102 -55 -103 -55 0 311 0 311 -80 0 -80 0 0
-352 0 -353 -188 -97 c-103 -54 -247 -129 -320 -167 l-133 -70 3 812 c4 806 4
813 26 884 12 40 36 105 53 143 18 39 30 72 28 74 -2 2 -32 19 -67 40 l-63 36
-40 -85 c-22 -47 -52 -130 -67 -183 l-27 -97 -3 -940 c-2 -637 1 -962 8 -1009
27 -177 99 -317 229 -447 129 -128 267 -200 441 -228 95 -16 2920 -15 2954 0
13 7 29 23 35 38 11 27 231 1170 231 1200 0 14 -15 21 -71 30 -38 7 -73 11
-75 8 -3 -3 -54 -258 -112 -566 l-107 -561 -727 0 -728 0 0 398 0 398 258 181
c141 100 269 194 284 210 67 70 89 202 48 292 -23 50 -235 347 -289 404 l-35
37 387 0 387 0 0 80 0 79 -847 3 -848 3 -69 27 c-38 14 -92 42 -120 62 -28 19
-247 231 -486 471 l-435 435 190 190 190 190 -58 57 -57 58 -190 -190 -190
-190 -82 83 -83 82 265 264 265 265 480 -445 c264 -245 494 -454 510 -465 29
-18 53 -19 525 -19 466 0 497 1 530 19 19 10 85 46 145 80 157 88 242 113 380
114 131 1 204 -15 325 -75 68 -33 102 -58 171 -127 95 -95 134 -156 176 -276
l28 -80 3 -360 c2 -198 -1 -434 -7 -524 -11 -152 -35 -368 -47 -417 -5 -19 1
-22 71 -33 42 -7 78 -11 80 -9 5 5 33 205 47 338 8 82 13 275 13 565 0 425 -1
443 -22 520 -80 284 -286 503 -558 594 -49 16 -113 33 -141 37 l-52 6 27 57
c54 115 27 264 -64 356 -44 43 -121 82 -182 91 l-43 6 0 62 c-1 355 -238 650
-582 720 -64 13 -159 16 -570 16 -448 -1 -498 -2 -545 -19z m1106 -156 c244
-58 430 -291 431 -540 l0 -59 -92 136 c-51 76 -102 141 -115 147 -16 8 -218
11 -644 11 -678 0 -661 -1 -712 59 -66 79 -36 206 58 247 47 21 985 20 1074
-1z m289 -678 l142 -212 0 -155 -1 -155 -130 -72 c-161 -90 -189 -94 -277 -34
-218 149 -530 158 -751 22 l-46 -28 -198 181 -198 181 5 115 c5 126 21 197 68
301 l31 69 607 0 607 0 141 -213z m391 -135 c49 -36 66 -70 66 -132 0 -44 -5
-66 -21 -86 -28 -39 -63 -63 -101 -70 l-33 -6 0 162 0 163 33 -7 c17 -3 43
-14 56 -24z m-1129 -1770 c0 -32 -6 -42 -32 -62 -18 -13 -47 -34 -65 -48 l-32
-24 1 54 c0 29 -2 68 -6 86 l-8 32 71 0 71 0 0 -38z m-313 6 c33 -37 34 -52
11 -194 -16 -105 -18 -140 -10 -160 14 -30 52 -49 85 -40 13 3 120 75 237 161
193 140 218 155 255 155 22 0 50 -7 61 -15 31 -21 275 -362 286 -399 22 -70
12 -79 -393 -365 -206 -145 -379 -264 -386 -265 -6 0 -106 128 -222 286 l-211
288 74 267 c81 292 87 303 155 303 26 0 44 -7 58 -22z m-211 -921 c98 -133
188 -256 201 -274 l24 -31 -111 -87 c-61 -48 -113 -86 -114 -84 -2 2 -67 100
-145 217 -78 116 -144 212 -147 212 -3 0 -32 -18 -65 -41 -37 -25 -59 -46 -55
-54 3 -8 68 -109 146 -225 l141 -211 -23 -18 c-401 -315 -475 -371 -499 -371
-50 0 -182 40 -252 77 -97 52 -211 166 -260 260 -45 86 -77 205 -77 282 l1 56
522 272 c287 149 525 269 529 267 3 -2 86 -113 184 -247z m521 -964 c-2 -2
-201 -2 -442 -1 l-438 3 358 280 c197 154 395 306 439 337 l81 58 3 -337 c1
-185 1 -338 -1 -340z"/>
<path d="M2002 4085 c-18 -36 -32 -69 -32 -73 0 -4 36 -26 80 -47 44 -21 80
-42 80 -45 0 -3 -36 -24 -80 -45 -44 -21 -80 -43 -80 -47 0 -8 58 -128 65
-136 2 -2 80 35 173 82 142 72 172 91 182 116 10 24 10 36 0 60 -10 25 -39 44
-181 115 -92 47 -169 85 -171 85 -2 0 -18 -29 -36 -65z"/>
<path d="M2909 4065 c-139 -71 -169 -90 -179 -115 -10 -24 -10 -36 0 -60 10
-25 40 -44 182 -116 93 -47 171 -84 173 -82 7 8 65 128 65 136 0 4 -36 26 -80
47 -44 21 -80 42 -80 45 0 3 36 24 80 45 44 21 80 43 80 47 0 12 -64 138 -70
138 -3 -1 -80 -39 -171 -85z"/>
<path d="M2160 560 l0 -80 80 0 80 0 0 80 0 80 -80 0 -80 0 0 -80z"/>
<path d="M3841 4684 l-171 -217 62 -48 c34 -26 64 -47 65 -45 2 1 79 98 172
216 l169 213 -60 49 c-33 26 -62 48 -63 48 -1 0 -80 -97 -174 -216z"/>
<path d="M4245 4161 c-225 -85 -309 -121 -307 -132 8 -37 46 -129 53 -129 4 0
142 50 306 111 164 61 306 113 315 116 15 4 14 12 -10 79 -15 41 -31 74 -37
73 -5 -1 -149 -54 -320 -118z"/>
<path d="M4320 3759 c-31 -62 -33 -72 -19 -80 94 -52 220 -181 288 -294 71
-117 131 -327 131 -456 l0 -49 80 0 80 0 0 33 c0 145 -48 337 -120 482 -59
119 -125 209 -217 296 -57 53 -171 139 -185 139 -2 0 -20 -32 -38 -71z"/>
<path d="M3166 3054 c-31 -25 -56 -48 -56 -53 0 -11 150 -191 159 -191 5 0 34
21 65 46 l55 46 -80 99 c-44 54 -82 99 -84 99 -2 0 -28 -20 -59 -46z"/>
<path d="M2728 2819 c-3 -63 -3 -117 -1 -121 2 -5 37 -8 77 -8 l73 0 7 77 c3
42 6 93 6 115 0 35 -2 38 -27 38 -16 0 -51 3 -79 6 l-51 6 -5 -113z"/>
<path d="M3480 1836 l-55 -11 -7 -83 c-11 -132 -41 -204 -118 -286 l-48 -51
45 -62 46 -62 33 25 c47 36 108 119 144 196 39 82 64 221 55 295 -7 59 -5 58
-95 39z"/>
</g>
</svg>
